HIERARCHY
ROOT hip
{
  OFFSET 5.70873 43.8894 -1.52928
  CHANNELS 6 Xposition Yposition Zposition Zrotation Xrotation Yrotation
  JOINT abdomen
  {
    OFFSET 0 5.99393 0.287273
    CHANNELS 6 Xposition Yposition Zposition Zrotation Xrotation Yrotation
    JOINT chest
    {
      OFFSET 0 6.65865 -0.856112
      CHANNELS 6 Xposition Yposition Zposition Zrotation Xrotation Yrotation
      JOINT neck
      {
        OFFSET 0 8.65624 -1.42685
        CHANNELS 6 Xposition Yposition Zposition Zrotation Xrotation Yrotation
        JOINT head
        {
          OFFSET 0 3.80999 -0.190247
          CHANNELS 6 Xposition Yposition Zposition Zrotation Xrotation Yrotation
          End Site
          {
            OFFSET 0 0 0
          }
        }
      }
      JOINT rCollar
      {
        OFFSET -1.4963 7.5744 -1.52136
        CHANNELS 6 Xposition Yposition Zposition Zrotation Xrotation Yrotation
        JOINT rShldr
        {
          OFFSET -5.47506 -0.905672 0.485692
          CHANNELS 6 Xposition Yposition Zposition Zrotation Xrotation Yrotation
          JOINT rForeArm
          {
            OFFSET -11.3069 -0.201091 0.618544
            CHANNELS 6 Xposition Yposition Zposition Zrotation Xrotation Yrotation
            JOINT rHand
            {
              OFFSET -9.61414 -0.254739 3.48553
              CHANNELS 6 Xposition Yposition Zposition Zrotation Xrotation Yrotation
              JOINT rThumb1
              {
                OFFSET 0.176263 -0.07068 1.26622
                CHANNELS 6 Xposition Yposition Zposition Zrotation Xrotation Yrotation
                JOINT rThumb2
                {
                  OFFSET -1.04683 -0.546484 1.82182
                  CHANNELS 6 Xposition Yposition Zposition Zrotation Xrotation Yrotation
                  JOINT rThumb3
                  {
                    OFFSET -0.993472 -0.621916 0.655506
                    CHANNELS 6 Xposition Yposition Zposition Zrotation Xrotation Yrotation
                    End Site
                    {
                      OFFSET -0.996134 -0.66263 0.644615
                    }
                  }
                }
              }
              JOINT rIndex1
              {
                OFFSET -2.64253 0.566363 2.4162
                CHANNELS 6 Xposition Yposition Zposition Zrotation Xrotation Yrotation
                JOINT rIndex2
                {
                  OFFSET -1.39394 -0.635138 0.899356
                  CHANNELS 6 Xposition Yposition Zposition Zrotation Xrotation Yrotation
                  JOINT rIndex3
                  {
                    OFFSET -0.622395 -0.856016 0.402182
                    CHANNELS 6 Xposition Yposition Zposition Zrotation Xrotation Yrotation
                    End Site
                    {
                      OFFSET -0.472476 -0.801802 0.34216
                    }
                  }
                }
              }
              JOINT rMid1
              {
                OFFSET -3.20814 0.514427 1.52547
                CHANNELS 6 Xposition Yposition Zposition Zrotation Xrotation Yrotation
                JOINT rMid2
                {
                  OFFSET -1.56545 -0.497974 0.68919
                  CHANNELS 6 Xposition Yposition Zposition Zrotation Xrotation Yrotation
                  JOINT rMid3
                  {
                    OFFSET -0.679943 -1.17582 0.444246
                    CHANNELS 6 Xposition Yposition Zposition Zrotation Xrotation Yrotation
                    End Site
                    {
                      OFFSET -0.343874 -0.941341 0.267611
                    }
                  }
                }
              }
              JOINT rRing1
              {
                OFFSET -3.47877 0.200518 0.597719
                CHANNELS 6 Xposition Yposition Zposition Zrotation Xrotation Yrotation
                JOINT rRing2
                {
                  OFFSET -1.28208 -0.53155 0.44672
                  CHANNELS 6 Xposition Yposition Zposition Zrotation Xrotation Yrotation
                  JOINT rRing3
                  {
                    OFFSET -0.710288 -0.970167 0.4032
                    CHANNELS 6 Xposition Yposition Zposition Zrotation Xrotation Yrotation
                    End Site
                    {
                      OFFSET -0.403228 -0.950952 0.378354
                    }
                  }
                }
              }
              JOINT rPinky1
              {
                OFFSET -3.42483 -0.278904 -0.240415
                CHANNELS 6 Xposition Yposition Zposition Zrotation Xrotation Yrotation
                JOINT rPinky2
                {
                  OFFSET -1.05787 -0.635999 0.156459
                  CHANNELS 6 Xposition Yposition Zposition Zrotation Xrotation Yrotation
                  JOINT rPinky3
                  {
                    OFFSET -0.42815 -0.754232 0.287187
                    CHANNELS 6 Xposition Yposition Zposition Zrotation Xrotation Yrotation
                    End Site
                    {
                      OFFSET -0.235717 -0.725605 0.279416
                    }
                  }
                }
              }
            }
          }
        }
      }
      JOINT lCollar
      {
        OFFSET 1.4963 7.5744 -1.52136
        CHANNELS 6 Xposition Yposition Zposition Zrotation Xrotation Yrotation
        JOINT lShldr
        {
          OFFSET 5.47506 -0.905672 0.485692
          CHANNELS 6 Xposition Yposition Zposition Zrotation Xrotation Yrotation
          JOINT lForeArm
          {
            OFFSET 11.3069 -0.201091 0.618544
            CHANNELS 6 Xposition Yposition Zposition Zrotation Xrotation Yrotation
            JOINT lHand
            {
              OFFSET 9.61414 -0.254739 3.48553
              CHANNELS 6 Xposition Yposition Zposition Zrotation Xrotation Yrotation
              JOINT lThumb1
              {
                OFFSET -0.176263 -0.07068 1.26622
                CHANNELS 6 Xposition Yposition Zposition Zrotation Xrotation Yrotation
                JOINT lThumb2
                {
                  OFFSET 1.04683 -0.546484 1.82182
                  CHANNELS 6 Xposition Yposition Zposition Zrotation Xrotation Yrotation
                  JOINT lThumb3
                  {
                    OFFSET 0.993472 -0.621916 0.655506
                    CHANNELS 6 Xposition Yposition Zposition Zrotation Xrotation Yrotation
                    End Site
                    {
                      OFFSET 0.996134 -0.66263 0.644615
                    }
                  }
                }
              }
              JOINT lIndex1
              {
                OFFSET 2.64253 0.566363 2.4162
                CHANNELS 6 Xposition Yposition Zposition Zrotation Xrotation Yrotation
                JOINT lIndex2
                {
                  OFFSET 1.39394 -0.635138 0.899356
                  CHANNELS 6 Xposition Yposition Zposition Zrotation Xrotation Yrotation
                  JOINT lIndex3
                  {
                    OFFSET 0.622395 -0.856016 0.402182
                    CHANNELS 6 Xposition Yposition Zposition Zrotation Xrotation Yrotation
                    End Site
                    {
                      OFFSET 0.472476 -0.801802 0.34216
                    }
                  }
                }
              }
              JOINT lMid1
              {
                OFFSET 3.20814 0.514427 1.52547
                CHANNELS 6 Xposition Yposition Zposition Zrotation Xrotation Yrotation
                JOINT lMid2
                {
                  OFFSET 1.56545 -0.497974 0.68919
                  CHANNELS 6 Xposition Yposition Zposition Zrotation Xrotation Yrotation
                  JOINT lMid3
                  {
                    OFFSET 0.679943 -1.17582 0.444246
                    CHANNELS 6 Xposition Yposition Zposition Zrotation Xrotation Yrotation
                    End Site
                    {
                      OFFSET 0.343874 -0.941341 0.267611
                    }
                  }
                }
              }
              JOINT lRing1
              {
                OFFSET 3.47877 0.200518 0.597719
                CHANNELS 6 Xposition Yposition Zposition Zrotation Xrotation Yrotation
                JOINT lRing2
                {
                  OFFSET 1.28208 -0.53155 0.44672
                  CHANNELS 6 Xposition Yposition Zposition Zrotation Xrotation Yrotation
                  JOINT lRing3
                  {
                    OFFSET 0.710288 -0.970167 0.4032
                    CHANNELS 6 Xposition Yposition Zposition Zrotation Xrotation Yrotation
                    End Site
                    {
                      OFFSET 0.403228 -0.950952 0.378354
                    }
                  }
                }
              }
              JOINT lPinky1
              {
                OFFSET 3.42483 -0.278904 -0.240415
                CHANNELS 6 Xposition Yposition Zposition Zrotation Xrotation Yrotation
                JOINT lPinky2
                {
                  OFFSET 1.05787 -0.635999 0.156459
                  CHANNELS 6 Xposition Yposition Zposition Zrotation Xrotation Yrotation
                  JOINT lPinky3
                  {
                    OFFSET 0.42815 -0.754232 0.287187
                    CHANNELS 6 Xposition Yposition Zposition Zrotation Xrotation Yrotation
                    End Site
                    {
                      OFFSET 0.235717 -0.725605 0.279416
                    }
                  }
                }
              }
            }
          }
        }
      }
    }
  }
  JOINT rThigh
  {
    OFFSET -4.17848 -1.02486 0.046356
    CHANNELS 6 Xposition Yposition Zposition Zrotation Xrotation Yrotation
    JOINT rShin
    {
      OFFSET 1.27155 -17.465 -0.237699
      CHANNELS 6 Xposition Yposition Zposition Zrotation Xrotation Yrotation
      JOINT rFoot
      {
        OFFSET 0.529163 -17.3815 -1.19582
        CHANNELS 6 Xposition Yposition Zposition Zrotation Xrotation Yrotation
        JOINT rToe
        {
          OFFSET -0.711591 -4.4863 4.0596
          CHANNELS 6 Xposition Yposition Zposition Zrotation Xrotation Yrotation
          End Site
          {
            OFFSET -0.869915 -1.10655 1.99006
          }
        }
      }
    }
  }
  JOINT lThigh
  {
    OFFSET 4.17848 -1.02486 0.046356
    CHANNELS 6 Xposition Yposition Zposition Zrotation Xrotation Yrotation
    JOINT lShin
    {
      OFFSET -1.27155 -17.465 -0.237699
      CHANNELS 6 Xposition Yposition Zposition Zrotation Xrotation Yrotation
      JOINT lFoot
      {
        OFFSET -0.529163 -17.3815 -1.19582
        CHANNELS 6 Xposition Yposition Zposition Zrotation Xrotation Yrotation
        JOINT lToe
        {
          OFFSET 0.711591 -4.4863 4.0596
          CHANNELS 6 Xposition Yposition Zposition Zrotation Xrotation Yrotation
          End Site
          {
            OFFSET 0.869915 -1.10655 1.99006
          }
        }
      }
    }
  }
}
MOTION
Frames:	4
Frame Time:	0.0333333
-11.9427 43.2876 16.9912 0.661661 -39.2708 16.2802 0 5.99393 0.287273 2.47886 -8.66354 -0.702451 3.55271e-015 6.65865 -0.856112 4.93513 -17.3492 -1.03823 0 8.65624 -1.42685 0.30995 -1.51331 -1.94385 -1.77636e-015 3.80999 -0.190247 31.1471 1.67845 9.37426 -1.4963 7.5744 -1.52136 -25.2589 0.0155199 -10.3487 -5.47506 -0.905672 0.485692 60.7792 -2.82562 86.9284 -11.3069 -0.201091 0.618544 -1.72005 -3.67459 43.6538 -9.61414 -0.254739 3.48553 -16.0035 -19.1263 53.195 0.176263 -0.07068 1.26622 -19.5565 47.1208 31.275 -1.04683 -0.546484 1.82182 4.64754 -3.91617 12.694 -0.993472 -0.621916 0.655506 -6.69355 11.6012 -27.2271 -2.64253 0.566363 2.4162 22.6623 6.19463 -14.3658 -1.39394 -0.635138 0.899356 39.7252 7.68578 -8.77035 -0.622395 -0.856016 0.402182 40.5677 7.77426 -9.00341 -3.20814 0.514427 1.52547 6.20241 0.646632 -2.1029 -1.56545 -0.497974 0.68919 51.7974 10.4659 -12.7909 -0.679943 -1.17582 0.444246 14.5469 4.13136 -2.59454 -3.47877 0.200518 0.597719 13.4233 -1.35172 -5.37488 -1.28208 -0.53155 0.44672 20.4611 6.18634 -4.84357 -0.710288 -0.970167 0.4032 22.0777 6.58475 -5.30727 -3.42483 -0.278904 -0.240415 -11.5768 -9.15201 -6.30983 -1.05787 -0.635999 0.156459 21.1478 6.99228 -4.86338 -0.42815 -0.754232 0.287187 10.7632 3.81509 -2.16867 1.4963 7.5744 -1.52136 12.79 -1.59959 -16.7424 5.47506 -0.905672 0.485692 -50.3783 -10.6835 -45.9809 11.3069 -0.201091 0.618544 -56.293 3.1376 -111.809 9.61414 -0.254739 3.48553 -15.0645 58.7419 -20.0397 -0.176263 -0.07068 1.26622 24.2781 38.4817 -35.502 1.04683 -0.546484 1.82182 -6.53187 -1.24833 -11.4632 0.993472 -0.621916 0.655506 6.45114 2.66703 11.8096 2.64253 0.566363 2.4162 -5.18982 4.4831 12.5249 1.39394 -0.635138 0.899356 -36.9452 6.74404 17.0315 0.622395 -0.856016 0.402182 -38.0065 6.76587 17.5559 3.20814 0.514427 1.52547 -1.48529 -0.683782 1.67109 1.56545 -0.497974 0.68919 -44.487 8.35695 21.4003 0.679943 -1.17582 0.444246 -9.36088 3.19881 3.99193 3.47877 0.200518 0.597719 -8.07667 -2.63756 5.99024 1.28208 -0.53155 0.44672 -14.781 5.15045 7.2946 0.710288 -0.970167 0.4032 -16.2799 5.55249 8.0856 3.42483 -0.278904 -0.240415 11.7677 -11.3031 2.60135 1.05787 -0.635999 0.156459 -18.896 6.82231 9.38313 0.42815 -0.754232 0.287187 -9.18826 3.76087 4.34972 -4.17848 -1.02486 0.046356 2.08665 26.6527 0.855481 1.27155 -17.465 -0.237699 0.564047 -1.34605 4.20058 0.529163 -17.3815 -1.19582 15.7416 8.65704 -18.8462 -0.711591 -4.4863 4.0596 7.04156 -2.56224 -0.734706 4.17848 -1.02486 0.046356 17.5787 15.7153 5.37664 -1.27155 -17.465 -0.237699 0.358107 -3.05182 0.369318 -0.529163 -17.3815 -1.19582 -4.08793 21.2665 -6.9123 0.711591 -4.4863 4.0596 1.21801 2.69437 -0.245963 
-11.7459 43.2951 17.0732 0.734699 -39.5996 16.402 0 5.99393 0.287273 2.62069 -8.81037 -0.790021 3.55271e-015 6.65865 -0.856112 5.21104 -17.6473 -1.18732 -3.55271e-015 8.65624 -1.42685 0.297077 -1.19145 -1.52674 3.55271e-015 3.80999 -0.190247 30.6554 1.73589 9.35386 -1.4963 7.5744 -1.52136 -25.3731 0.00512769 -9.93485 -5.47506 -0.905672 0.485692 61.0152 -2.97509 86.4043 -11.3069 -0.201091 0.618544 -0.702029 -3.97663 44.1376 -9.61414 -0.254739 3.48553 -14.7079 -15.8036 53.4534 0.176263 -0.07068 1.26622 -19.5566 47.1209 31.275 -1.04683 -0.546484 1.82182 4.64753 -3.91617 12.694 -0.993472 -0.621916 0.655506 -6.69356 11.6012 -27.2271 -2.64253 0.566363 2.4162 22.6623 6.19465 -14.3658 -1.39394 -0.635138 0.899356 39.7253 7.68579 -8.77035 -0.622395 -0.856016 0.402182 40.5677 7.77432 -9.00344 -3.20814 0.514427 1.52547 6.2024 0.646655 -2.1029 -1.56545 -0.497974 0.68919 51.7974 10.4659 -12.7908 -0.679943 -1.17582 0.444246 14.547 4.13123 -2.59463 -3.47877 0.200518 0.597719 13.4233 -1.35171 -5.37487 -1.28208 -0.53155 0.44672 20.4611 6.18635 -4.84356 -0.710288 -0.970167 0.4032 22.0778 6.58459 -5.30729 -3.42483 -0.278904 -0.240415 -11.5768 -9.15199 -6.30982 -1.05787 -0.635999 0.156459 21.1478 6.99234 -4.86337 -0.42815 -0.754232 0.287187 10.7632 3.81517 -2.16859 1.4963 7.5744 -1.52136 13.1141 -1.57957 -16.5118 5.47506 -0.905672 0.485692 -51.8744 -9.10793 -46.1875 11.3069 -0.201091 0.618544 -56.5601 3.10614 -112.558 9.61414 -0.254739 3.48553 -17.0447 60.1464 -17.8011 -0.176263 -0.07068 1.26622 24.2781 38.4817 -35.502 1.04683 -0.546484 1.82182 -6.53189 -1.2484 -11.4631 0.993472 -0.621916 0.655506 6.45112 2.66703 11.8096 2.64253 0.566363 2.4162 -5.18986 4.48303 12.5249 1.39394 -0.635138 0.899356 -36.9452 6.74405 17.0315 0.622395 -0.856016 0.402182 -38.0065 6.76586 17.5559 3.20814 0.514427 1.52547 -1.48525 -0.68367 1.67111 1.56545 -0.497974 0.68919 -44.487 8.35692 21.4003 0.679943 -1.17582 0.444246 -9.36087 3.19883 3.99193 3.47877 0.200518 0.597719 -8.07669 -2.63759 5.99024 1.28208 -0.53155 0.44672 -14.7811 5.15045 7.29461 0.710288 -0.970167 0.4032 -16.2799 5.55241 8.08562 3.42483 -0.278904 -0.240415 11.7677 -11.3032 2.60137 1.05787 -0.635999 0.156459 -18.896 6.82231 9.38313 0.42815 -0.754232 0.287187 -9.18825 3.76083 4.34977 -4.17848 -1.02486 0.046356 1.80282 26.8093 1.19979 1.27155 -17.465 -0.237699 0.721246 -0.629982 4.10825 0.529163 -17.3815 -1.19582 15.7611 8.18743 -18.8264 -0.711591 -4.4863 4.0596 6.98518 -1.92674 -0.788511 4.17848 -1.02486 0.046356 17.2217 16.8367 3.75433 -1.27155 -17.465 -0.237699 0.333516 -3.1109 0.378528 -0.529163 -17.3815 -1.19582 -4.10468 22.5118 -6.6752 0.711591 -4.4863 4.0596 1.06641 3.75694 -0.319087 
-11.5079 43.3095 17.1787 1.06774 -40.0419 16.4606 3.55271e-015 5.99393 0.287273 2.724 -8.92888 -0.848115 0 6.65865 -0.856112 5.41297 -17.8876 -1.28337 0 8.65624 -1.42685 0.29385 -0.8008 -0.981992 1.77636e-015 3.80999 -0.190247 30.3816 1.68169 9.50639 -1.4963 7.5744 -1.52136 -25.444 -0.00600214 -9.45725 -5.47506 -0.905672 0.485692 61.3114 -2.92743 85.9733 -11.3069 -0.201091 0.618544 0.225818 -4.22999 44.4982 -9.61414 -0.254739 3.48553 -13.5004 -12.6487 53.6556 0.176263 -0.07068 1.26622 -19.5565 47.1207 31.2749 -1.04683 -0.546484 1.82182 4.64753 -3.91616 12.694 -0.993472 -0.621916 0.655506 -6.69364 11.6013 -27.227 -2.64253 0.566363 2.4162 22.6623 6.1947 -14.3658 -1.39394 -0.635138 0.899356 39.7252 7.6858 -8.77034 -0.622395 -0.856016 0.402182 40.5677 7.77421 -9.00341 -3.20814 0.514427 1.52547 6.20239 0.646633 -2.10292 -1.56545 -0.497974 0.68919 51.7974 10.4659 -12.7909 -0.679943 -1.17582 0.444246 14.547 4.13122 -2.59462 -3.47877 0.200518 0.597719 13.4233 -1.35172 -5.37487 -1.28208 -0.53155 0.44672 20.4611 6.18633 -4.84357 -0.710288 -0.970167 0.4032 22.0778 6.58465 -5.30725 -3.42483 -0.278904 -0.240415 -11.5769 -9.15197 -6.30982 -1.05787 -0.635999 0.156459 21.1478 6.99222 -4.86339 -0.42815 -0.754232 0.287187 10.7632 3.81498 -2.16873 1.4963 7.5744 -1.52136 13.5912 -1.54524 -16.1174 5.47506 -0.905672 0.485692 -53.655 -7.63203 -46.2621 11.3069 -0.201091 0.618544 -56.582 3.04821 -113.101 9.61414 -0.254739 3.48553 -19.0157 61.1936 -15.7442 -0.176263 -0.07068 1.26622 24.2781 38.4817 -35.502 1.04683 -0.546484 1.82182 -6.53182 -1.2483 -11.4632 0.993472 -0.621916 0.655506 6.45112 2.66701 11.8096 2.64253 0.566363 2.4162 -5.1898 4.48319 12.5249 1.39394 -0.635138 0.899356 -36.9452 6.74404 17.0315 0.622395 -0.856016 0.402182 -38.0065 6.76585 17.5558 3.20814 0.514427 1.52547 -1.48525 -0.683693 1.67111 1.56545 -0.497974 0.68919 -44.487 8.35687 21.4003 0.679943 -1.17582 0.444246 -9.36087 3.19881 3.99192 3.47877 0.200518 0.597719 -8.07671 -2.6376 5.99023 1.28208 -0.53155 0.44672 -14.781 5.15046 7.2946 0.710288 -0.970167 0.4032 -16.2799 5.55252 8.08555 3.42483 -0.278904 -0.240415 11.7678 -11.303 2.60135 1.05787 -0.635999 0.156459 -18.896 6.82231 9.38313 0.42815 -0.754232 0.287187 -9.18825 3.76093 4.34966 -4.17848 -1.02486 0.046356 1.24617 27.1692 1.44499 1.27155 -17.465 -0.237699 0.88964 0.0612039 4.02425 0.529163 -17.3815 -1.19582 15.4553 8.12861 -18.3291 -0.711591 -4.4863 4.0596 6.90402 -1.48637 -0.8114 4.17848 -1.02486 0.046356 16.5317 18.1303 3.12413 -1.27155 -17.465 -0.237699 0.32643 -3.12629 0.402419 -0.529163 -17.3815 -1.19582 -3.14634 22.1305 -7.21687 0.711591 -4.4863 4.0596 1.00596 4.05753 -0.337702 
-11.2559 43.3127 17.2793 1.59999 -40.4114 16.4204 0 5.99393 0.287273 2.83088 -9.02737 -0.807132 0 6.65865 -0.856112 5.63842 -18.0833 -1.17753 -1.77636e-015 8.65624 -1.42685 0.288175 -0.565562 -0.560637 1.77636e-015 3.80999 -0.190247 29.9518 1.60108 9.65282 -1.4963 7.5744 -1.52136 -25.246 -0.0110113 -9.09411 -5.47506 -0.905672 0.485692 61.6394 -2.62663 85.8116 -11.3069 -0.201091 0.618544 0.982966 -4.42808 44.7016 -9.61414 -0.254739 3.48553 -12.2539 -9.4334 53.8736 0.176263 -0.07068 1.26622 -19.5565 47.1207 31.2749 -1.04683 -0.546484 1.82182 4.64753 -3.91616 12.694 -0.993472 -0.621916 0.655506 -6.69352 11.6012 -27.2271 -2.64253 0.566363 2.4162 22.6623 6.1946 -14.3658 -1.39394 -0.635138 0.899356 39.7253 7.6858 -8.77035 -0.622395 -0.856016 0.402182 40.5677 7.7742 -9.00341 -3.20814 0.514427 1.52547 6.2024 0.646648 -2.10292 -1.56545 -0.497974 0.68919 51.7974 10.4659 -12.7909 -0.679943 -1.17582 0.444246 14.547 4.13123 -2.59463 -3.47877 0.200518 0.597719 13.4233 -1.35171 -5.37487 -1.28208 -0.53155 0.44672 20.4612 6.18636 -4.84356 -0.710288 -0.970167 0.4032 22.0779 6.58451 -5.30728 -3.42483 -0.278904 -0.240415 -11.5769 -9.1519 -6.3098 -1.05787 -0.635999 0.156459 21.1478 6.99223 -4.86341 -0.42815 -0.754232 0.287187 10.7632 3.81502 -2.16873 1.4963 7.5744 -1.52136 13.9066 -1.53685 -16.0156 5.47506 -0.905672 0.485692 -54.8063 -6.38498 -45.8601 11.3069 -0.201091 0.618544 -56.8606 3.26293 -113.824 9.61414 -0.254739 3.48553 -20.3623 62.3668 -14.0798 -0.176263 -0.07068 1.26622 24.2781 38.4817 -35.5021 1.04683 -0.546484 1.82182 -6.53183 -1.24831 -11.4632 0.993472 -0.621916 0.655506 6.4511 2.66697 11.8097 2.64253 0.566363 2.4162 -5.18981 4.48318 12.5249 1.39394 -0.635138 0.899356 -36.9452 6.74402 17.0315 0.622395 -0.856016 0.402182 -38.0065 6.76584 17.5559 3.20814 0.514427 1.52547 -1.48525 -0.683692 1.6711 1.56545 -0.497974 0.68919 -44.487 8.357 21.4003 0.679943 -1.17582 0.444246 -9.36089 3.19882 3.99193 3.47877 0.200518 0.597719 -8.07673 -2.63768 5.99022 1.28208 -0.53155 0.44672 -14.7811 5.15045 7.29461 0.710288 -0.970167 0.4032 -16.2799 5.55255 8.08556 3.42483 -0.278904 -0.240415 11.7678 -11.303 2.60134 1.05787 -0.635999 0.156459 -18.896 6.8223 9.38314 0.42815 -0.754232 0.287187 -9.18826 3.76094 4.34967 -4.17848 -1.02486 0.046356 0.493074 26.9883 2.43815 1.27155 -17.465 -0.237699 1.05706 1.63394 4.01968 0.529163 -17.3815 -1.19582 14.9087 7.58371 -18.3564 -0.711591 -4.4863 4.0596 6.85823 -0.792723 -0.870331 4.17848 -1.02486 0.046356 15.6709 18.9971 3.34066 -1.27155 -17.465 -0.237699 0.33217 -3.08743 0.414915 -0.529163 -17.3815 -1.19582 -2.55942 21.7116 -5.97781 0.711591 -4.4863 4.0596 0.935564 4.4468 -0.361847 
